<svg width="234" height="50" viewBox="0 0 139.984 61.78" xmlns="http://www.w3.org/2000/svg">	<g data-name="Group 647" style="mix-blend-mode:multiply;isolation:isolate" fill="#232120">	<path data-name="Path 438" d="M82.654 38.272H48.976V0h33.578v7.32H56.297v8.422h19.156v7.453H56.297v7.754h28.946z"></path>	<path data-name="Path 439" d="M32.483 38.272H0V-.001h7.325v30.952h27.751z"></path>	<path data-name="Path 440" d="M139.983 38.272h-7.812l-2-5.889H108.86l-1.973 5.889h-7.813L112.469 0h14.118zm-28.521-13.21h16.12L121.407 7.32h-3.759z"></path>	<path data-name="Path 441" d="M32.703 59.031c-.139.8-.715 2.748-4.027 2.748-2.281 0-4.077-1.269-4.077-3.9 0-2.1 1.319-3.67 4.186-3.67 3.224 0 3.7 2.093 3.809 2.48h-1.408a2.281 2.281 0 0 0-2.321-1.27c-1.994 0-2.827 1.12-2.827 2.618a2.476 2.476 0 0 0 2.747 2.529 2.407 2.407 0 0 0 2.51-1.537z"></path>	<path data-name="Path 442" d="M35.998 54.389h6.467v1.21h-5.059v1.677h4.354v1.21h-4.354v1.9h5.177v1.21h-6.585z"></path>	<path data-name="Path 443" d="M45.766 54.389H50.1c1.706 0 2.936.387 2.936 2.152a2.042 2.042 0 0 1-2.013 2.123l2.212 2.936h-1.736l-2.093-2.837h-2.231V61.6h-1.409zm4.127 3.2c1.151 0 1.736-.169 1.736-1.021s-.585-1.012-1.736-1.012h-2.718v2.033z"></path>	<path data-name="Path 444" d="M59.414 54.389h1.607l3.5 7.212h-1.488l-.753-1.656h-4.157l-.763 1.656h-1.5zm2.312 4.345l-1.508-3.212-1.507 3.214z"></path>	<path data-name="Path 445" d="M68.739 56.135h-.02V61.6H67.47v-7.211h1.894l2.251 5.346 2.292-5.346h1.855V61.6h-1.249v-5.465h-.02L72.182 61.6h-1.121z"></path>	<path data-name="Rectangle 1011" d="M79.571 54.389h1.409V61.6h-1.409z"></path>	<path data-name="Path 446" d="M92.405 59.031c-.139.8-.715 2.748-4.027 2.748-2.281 0-4.077-1.269-4.077-3.9 0-2.1 1.319-3.67 4.186-3.67 3.224 0 3.7 2.093 3.809 2.48h-1.409a2.279 2.279 0 0 0-2.321-1.27c-1.994 0-2.827 1.12-2.827 2.618a2.476 2.476 0 0 0 2.748 2.529 2.407 2.407 0 0 0 2.509-1.537z"></path>	<path data-name="Path 447" d="M95.698 54.389h1.409v2.857h4.84v-2.857h1.409V61.6h-1.409v-3.105h-4.84V61.6h-1.409z"></path>	<path data-name="Path 448" d="M107.115 54.389h6.469v1.21h-5.06v1.677h4.354v1.21h-4.354v1.9h5.177v1.21h-6.586z"></path>	</g> </svg>