<svg width="234" height="50" viewBox="0 0 234 50" fill="none" xmlns="http://www.w3.org/2000/svg"><g clip-path="url(#clip0)" fill="#F4F0EC"><path d="M120.914 1.809v25.02h17.287v4.126h-21.664V1.81h4.377zm38.911 17.918l-4.313-9.906-4.528 9.906h8.841zm1.791 4.131h-12.463l-3.242 7.096h-4.738L155.587 0l13.894 30.954h-4.808l-3.057-7.096zm25.142-8.058h12.033v.962c0 2.183-.255 4.122-.771 5.81-.505 1.562-1.351 3.014-2.536 4.371-2.707 3.045-6.149 4.563-10.322 4.563-4.068 0-7.56-1.473-10.462-4.418-2.912-2.95-4.368-6.505-4.368-10.646 0-4.222 1.486-7.813 4.448-10.758 2.952-2.96 6.544-4.442 10.782-4.442 2.277 0 4.398.47 6.374 1.387 1.887.932 3.748 2.434 5.569 4.518l-3.137 3.004c-2.392-3.19-5.299-4.772-8.731-4.772-3.087 0-5.669 1.051-7.745 3.18-2.096 2.093-3.137 4.712-3.137 7.857 0 3.25 1.161 5.925 3.492 8.023 2.172 1.953 4.528 2.925 7.07 2.925 2.161 0 4.108-.726 5.829-2.178 1.726-1.473 2.687-3.22 2.887-5.269h-7.265V15.8h-.01zm20.573.507c0 3.22 1.081 5.875 3.248 7.953 2.151 2.078 4.628 3.115 7.45 3.115 3.057 0 5.628-1.052 7.725-3.17 2.106-2.144 3.152-4.748 3.152-7.823 0-3.11-1.041-5.714-3.112-7.822-2.062-2.119-4.613-3.165-7.655-3.165-3.027 0-5.584 1.051-7.675 3.165-2.092 2.088-3.133 4.672-3.133 7.747zm-4.427-.05c0-4.102 1.506-7.637 4.508-10.582 2.997-2.95 6.584-4.427 10.782-4.427 4.152 0 7.705 1.487 10.672 4.462 2.977 2.97 4.468 6.546 4.468 10.712 0 4.197-1.501 7.758-4.488 10.672-2.992 2.94-6.625 4.407-10.872 4.407-3.758 0-7.13-1.302-10.127-3.906-3.297-2.884-4.943-6.67-4.943-11.338zM28.063 24.264l-.39.546c-.275.35-.74.86-1.406 1.527-3.047 2.975-6.724 4.462-11.022 4.462-3.792 0-7.23-1.332-10.242-3.951C1.681 23.913 0 20.117 0 15.384c0-4.186 1.521-7.742 4.533-10.722C7.58 1.692 11.217.205 15.475.205c4.183 0 7.78 1.487 10.787 4.497a15.704 15.704 0 011.796 2.154l-3.127 3.13a11.416 11.416 0 00-1.756-2.39c-2.111-2.148-4.688-3.204-7.78-3.204-3.047 0-5.629 1.056-7.78 3.205-2.111 2.113-3.167 4.732-3.167 7.822 0 3.25 1.096 5.95 3.282 8.058 2.192 2.074 4.693 3.13 7.545 3.13 3.087 0 5.709-1.056 7.855-3.21a10.837 10.837 0 001.761-2.303l3.172 3.17zM68.59.164c5.273 0 8.52 3.48 9.301 8.293l-4.493.977c-.505-3.09-1.761-5.083-4.808-5.083-2.892 0-4.648 1.447-4.648 4.186 0 5.905 13.208 3.636 14.614 12.48.78 5.008-3.672 9.781-9.886 9.781-5.394 0-9.106-4.031-9.772-9.08l4.493-.976c.276 3.29 2.072 5.87 5.474 5.87 2.892 0 5.199-1.839 5.199-4.538 0-6.06-13.29-3.6-14.62-12.48-.82-5.479 3.872-9.43 9.146-9.43zM47.746 19.732l-4.313-9.906-4.527 9.906h8.84zm1.791 4.126H37.075l-3.242 7.091H29.1L43.51 0l13.889 30.95H52.59l-3.051-7.092zM98.8 19.732l-4.313-9.906-4.528 9.906H98.8zm1.791 4.126H88.133l-3.242 7.091h-4.738L94.563 0l13.888 30.95h-4.808l-3.052-7.092zM59.199 40.555l3.177 6.85 3.177-6.85h1.106v9.255h-1.141v-6.506l-2.942 6.31h-.39l-2.942-6.31v6.505h-1.141v-9.254h1.096zm11.632 0v9.255h-1.13v-9.255h1.13zm4.329 0v8.178h3.296v1.082h-4.428V40.56h1.131v-.005zm11.066 9.26l-.845-2.428h-3.202l-.896 2.428h-1.216L83.5 40.56h.7l3.287 9.255h-1.26zM82.61 46.24h2.382l-1.151-3.3-1.231 3.3zm12.792 3.575l-4.783-7.087.01.48v6.607h-1.14V40.56h1.09l4.733 6.996-.01-.506v-6.495h1.131v9.255h-1.03v.005zm8.501-9.43c2.537 0 4.883 2.113 4.883 4.813 0 2.699-2.341 4.787-4.883 4.787-2.537 0-4.783-2.088-4.783-4.788 0-2.699 2.246-4.812 4.783-4.812zm0 8.508c2.086.01 3.692-1.682 3.692-3.696 0-2.013-1.596-3.72-3.692-3.72-2.086 0-3.592 1.707-3.592 3.72 0 2.014 1.511 3.681 3.592 3.696zm12.148-4.458c.391 0 .811.331.811.727 0 .516-.415.811-.811.811-.415 0-.81-.295-.81-.811 0-.396.38-.727.81-.727zm7.63-3.88h2.762c1.261 0 2.356.455 3.262 1.362.921.906 1.376 2.003 1.376 3.265 0 1.287-.455 2.384-1.376 3.28-.921.897-2.036 1.352-3.337 1.352h-2.687v-9.26zm1.141 1.157v6.95h1.666c.97 0 1.776-.33 2.441-1.006.661-.676.996-1.497.996-2.469 0-.981-.32-1.818-.981-2.479-.65-.66-1.461-.996-2.416-.996h-1.706zm10.207-1.157v5.699c0 2.013.75 2.69 1.826 2.69 1.066 0 1.826-.677 1.826-2.69v-5.7h1.116v5.785c0 2.088-.881 3.66-2.942 3.66-2.072 0-2.942-1.557-2.942-3.66v-5.784h1.116zm12.173-.17c2.536 0 4.883 2.113 4.883 4.813 0 2.699-2.342 4.787-4.883 4.787-2.537 0-4.784-2.088-4.784-4.788 0-2.699 2.242-4.812 4.784-4.812zm0 8.508c2.086.01 3.692-1.682 3.692-3.696 0-2.013-1.596-3.72-3.692-3.72-2.087 0-3.593 1.707-3.593 3.72-.005 2.014 1.506 3.681 3.593 3.696zm8.33-8.338l3.177 6.85 3.177-6.85h1.106v9.255h-1.141v-6.506l-2.942 6.31h-.39l-2.942-6.31v6.505h-1.14v-9.254h1.095zm14.82-.17c2.537 0 4.883 2.113 4.883 4.813 0 2.699-2.341 4.787-4.883 4.787-2.537 0-4.783-2.088-4.783-4.788 0-2.699 2.241-4.812 4.783-4.812zm0 8.508c2.086.01 3.692-1.682 3.692-3.696 0-2.013-1.596-3.72-3.692-3.72-2.086 0-3.592 1.707-3.592 3.72-.005 2.014 1.506 3.681 3.592 3.696z"/></g><defs><clipPath id="clip0"><path fill="#fff" d="M0 0h233.333v50H0z"/></clipPath></defs></svg>