<?xml version="1.0" encoding="utf-8"?>
<!-- Generator: Adobe Illustrator 25.3.1, SVG Export Plug-In . SVG Version: 6.00 Build 0)  -->
<svg version="1.1" id="Livello_1" xmlns="http://www.w3.org/2000/svg" xmlns:xlink="http://www.w3.org/1999/xlink" x="0px" y="0px"
	 width="325.2px" height="150px" viewBox="0 0 325.2 150" style="enable-background:new 0 0 325.2 150;" xml:space="preserve">
<style type="text/css">
	.st0{opacity:0.3;fill:#ABABAB;}
	.st1{fill:#1D1E1C;}
	.st2{fill-rule:evenodd;clip-rule:evenodd;fill:#1D1E1C;}
</style>
<g>
	<path class="st0" d="M14.1,102.7c2.4,3.3,5.3,6.5,8.5,9.4c-2.1-2.9-4-5.9-5.6-9.1c-5.5-10.9-7.5-22.7-5.5-34.5
		c-0.9,3.4-1.5,6.7-1.7,10.1C9.4,86.9,10.7,95,14.1,102.7 M88.2,12.8c1.7-0.1,3.3-0.1,5-0.1c25.2,0,48,7,64.5,18.4h0
		c1.5,1.1,3,2.1,4.4,3.3c-1.2-1.2-2.5-2.4-3.9-3.5c-3.5-3-7.3-5.6-11.4-7.9c-4.1-2-8.5-3.8-13.1-5.3
		C118.8,12.9,103.1,11.4,88.2,12.8z M35.1,125.4c-2.2-1.3-4.4-2.6-6.5-4c-1.4-1-2.8-2-4.2-3.1c1.8,1.9,3.7,3.8,5.9,5.6
		c6.4,5.4,13.8,9.7,21.9,12.8c-0.4-0.2-0.7-0.4-1-0.5C45.2,133,39.8,129.4,35.1,125.4z M32.8,35.8c-1.1,1.4-2.1,2.8-3.1,4.3
		c2.1-1.8,4.3-3.6,6.6-5.2c14.8-10.3,35.3-16.7,57.8-16.7c12.8,0,24.9,2.1,35.7,5.7c5.6,1.1,11,2.6,16.1,4.3
		c-14.7-7.6-33-12-52.9-12c-15.6,0-30.3,2.8-43,7.6c-3.9,2.1-7.7,4.4-11.2,7C36.8,32.4,34.8,34.1,32.8,35.8z M183.5,52.5
		c-3.9-10.9-11.2-20.7-21.1-28.6c-15-11.9-35.8-19.3-58.8-19.3c-20.5,0-39.3,5.9-53.8,15.6c2.9-1.1,5.8-2,8.9-2.9
		c2.3-0.9,4.6-1.7,7-2.5c21.2-6.6,45.8-6.9,68.9,0.6c5.9,1.9,11.5,4.3,16.6,6.9C165.5,30.1,176.6,40.6,183.5,52.5z M183.2,88.2
		c2.1-5.8,3.3-11.9,3.3-18.2c0-2.1-0.1-4.2-0.4-6.2c-0.8-2.4-1.9-4.8-3.1-7.2c-1.4-2.8-3.1-5.6-5-8.2c-2.4-2.3-5-4.5-7.8-6.6
		c9.2,9.9,14.6,21.7,14.6,34.5C184.8,80.3,184.3,84.3,183.2,88.2z M190.1,67c0,0.9,0.1,1.9,0.1,2.8c1.1,5.1,1.4,10.3,1,15.5
		c0.5-2.3,0.7-4.7,0.7-7.1C191.9,74.3,191.3,70.6,190.1,67z M36.3,26.4c1.9-1.9,4-3.7,6.1-5.4C58.1,8.6,79.7,0.9,103.5,0.9
		c23.8,0,45.5,7.7,61.1,20.1c13.8,10.9,23,25.5,25.1,41.7c2.2,4.9,3.4,10.1,3.4,15.5c0,5.1-1.1,10.1-3.1,14.9
		c-0.4,1.5-0.8,3-1.2,4.5c-1,3.1-2.3,6.1-3.9,9.2c-9.3,17.6-27,30.5-48.3,37c-21.2,6.6-45.8,6.9-68.9-0.6c-2.5-0.8-5-1.7-7.4-2.7
		c-11.4-3.2-21.9-8.5-30.6-15.8c-3.7-3.1-6.9-6.5-9.6-10C8.5,104,1.5,90.7,1.5,76.2c0-17.7,10.4-33.6,27.1-45.1
		C31.1,29.4,33.6,27.8,36.3,26.4z M25.2,40.3c0.9-1.6,1.9-3.1,3-4.6C13.9,46.4,5.1,60.6,5.1,76.2c0,8,2.3,15.7,6.6,22.7
		C9.4,92.4,8.5,85.5,9,78.6c0.5-7.2,2.5-14.4,5.9-21.4c0.7-1.8,1.5-3.6,2.5-5.3C19.5,47.8,22.2,43.9,25.2,40.3z M73.5,134.7
		c-8-2.4-15.5-5.6-22.2-9.7c-4.5-1.9-8.7-4.1-12.5-6.5c-10.6-6.6-18.6-14.9-22.9-24.2c0.9,2.6,2,5.2,3.2,7.7
		c3.1,6.1,7.4,11.9,12.6,17.2C43.2,126.8,57.5,132.2,73.5,134.7z M124.8,136.9c-5.2,1-10.6,1.7-16.2,2c-5,0.6-10.2,0.9-15.5,0.9
		c-16.8,0-32.6-3.1-46.1-8.6c1.7,1,3.4,2,5.2,2.9c5,2.6,10.4,4.9,16.2,6.8c1.1,0.4,2.3,0.7,3.4,1c5.4,0.8,10.9,1.3,16.4,1.3
		C100.5,143.2,113,141.1,124.8,136.9z M160.6,121.9c-8.5,5.9-18.5,10.5-29.4,13.5c-13.6,5.8-28.4,8.7-43,8.7c-3.1,0-6.1-0.1-9.1-0.4
		c19.4,4.2,39.4,3.2,56.9-2.3c20.7-6.4,37.9-18.9,46.9-35.9c0.5-0.9,0.9-1.8,1.3-2.7c-4.5,5.8-10.5,11.1-17.6,15.6
		C164.6,119.7,162.6,120.8,160.6,121.9z M189.1,81.1c-2.7,13.5-10.4,25.6-21.4,35.2c8-5.3,14.3-11.6,18.5-18.5
		c0.1-0.4,0.3-0.7,0.4-1.1C188.2,91.6,189.1,86.4,189.1,81.1z M99,135.1c-0.5,0-1,0-1.5,0c2,0.1,4,0.2,6,0.2c2.5,0,5-0.1,7.4-0.3
		c0.6-0.1,1.1-0.2,1.7-0.2c-3.3,0.2-6.6,0.3-9.9,0.3C101.4,135.1,100.2,135.1,99,135.1z M69.6,121.8c6.8,1.4,14.1,2.2,21.6,2.2
		c1.3,0,2.6,0,3.9-0.1c13.2-1.3,25-6.1,33.9-13.3c10.4-8.4,16.8-19.9,16.8-32.6s-6.4-24.3-16.8-32.6c-10.5-8.4-24.9-13.6-40.9-13.6
		c-16,0-30.4,5.2-40.9,13.6C36.9,53.8,30.5,65.3,30.5,78s6.4,24.3,16.8,32.6C53.5,115.6,61.1,119.5,69.6,121.8L69.6,121.8z
		 M135.8,113.3c12.1-8.7,19.6-20.7,19.6-33.9c0-13.2-7.5-25.2-19.6-33.9c-3.6-2.6-7.7-4.9-12.1-6.9c2.4,1.4,4.7,3,6.9,4.8
		c11,8.8,17.7,21.1,17.7,34.6c0,13.5-6.8,25.7-17.7,34.6c-4.1,3.3-8.7,6.1-13.8,8.3c5.7-1.4,11.1-3.3,16-5.6
		C133.9,114.6,134.9,114,135.8,113.3z M28.6,104.7c-3.5-4.3-6.2-9-7.8-14c-0.4-1-0.8-2.1-1.1-3.1c-0.7-1.9-1.2-3.9-1.6-5.8
		c-0.8-3.8-1.3-7.8-1.3-11.8c0-1.5,0.1-3,0.2-4.5c-0.9,3.3-1.4,6.8-1.4,10.3c0,12.2,5.9,23.5,15.9,32.6
		C30.5,107.1,29.5,105.9,28.6,104.7z M157.2,79.4c0,11.2-5.1,21.5-13.8,29.8c12.6-8.7,20.4-20.5,20.4-33.5
		c0-13.3-8.1-25.4-21.2-34.1c-12.6-8.4-29.8-13.8-48.9-14.2c-10.2,0.2-19.9,2-28.6,5c2.6-0.6,5.2-1.2,7.9-1.6c4.9-1,10-1.6,15.3-1.6
		c5.5,0,10.8,0.6,15.9,1.7c12.6,2.1,23.9,6.8,32.8,13.2C149.4,53.1,157.2,65.6,157.2,79.4z M103.8,127.9c8.1-0.2,15.9-1.2,23.2-2.9
		c8.6-2.7,16.4-6.5,23.1-11.1c4.2-2.9,7.9-6.1,11-9.6c4.8-7.1,7.5-15.1,7.5-23.5c0-14.7-8.1-28-21.2-37.6c-5-3.7-10.8-6.9-17.2-9.4
		c4.8,2,9.2,4.3,13.1,7c13.4,9,21.7,21.3,21.7,35.1c0,13.7-8.3,26.1-21.7,35c-1.8,1.2-3.8,2.4-5.9,3.5l-0.6,0.4
		C127.9,121.1,116.5,125.8,103.8,127.9z M85,126.7c1.8,0.3,3.7,0.5,5.5,0.7c12.2-0.3,23.7-2.9,33.4-7.3c-4.6,1.5-9.4,2.7-14.4,3.6
		c-6.6,2-13.8,3.1-21.3,3.1C87.1,126.8,86.1,126.8,85,126.7z M25.9,67.1c-0.8,2.9-1.2,5.9-1.2,9c0,11.3,5.4,21.8,14.5,30.3
		C32.2,98.4,28,88.6,28,78c0-13.5,6.8-25.7,17.7-34.6c2.3-1.8,4.8-3.5,7.4-5.1c-2.1,0.9-4.2,1.9-6.2,3c-0.8,0.5-1.6,1.1-2.4,1.7
		C35.8,49.6,29.2,57.9,25.9,67.1z M35.8,49.2c-0.2,0.3-0.5,0.5-0.7,0.8c0.3-0.4,0.7-0.7,1-1L35.8,49.2z M62.5,31.4
		c-5.4,2.1-10.3,4.7-14.7,7.7c1.4-0.8,2.9-1.5,4.4-2.1c6.2-3.4,13.2-6.1,20.7-7.9C69.3,29.6,65.8,30.4,62.5,31.4z M133.3,28.9
		c-9.7-3-20.5-4.7-31.9-4.7c-9.7,0-19,1.2-27.5,3.4c5.6-0.9,11.4-1.4,17.3-1.4c0.8,0,1.6,0,2.4,0c0.8,0,1.5,0,2.3,0
		c20.3,0,38.7,6.1,52,15.9c13.4,9.9,21.7,23.5,21.7,38.5c0,6.1-1.3,11.9-3.8,17.3c4.5-6.8,7-14.3,7-22.2c0-14.8-8.7-28.3-22.8-38
		C145.1,34.3,139.5,31.3,133.3,28.9z M165.1,104.9c8.2-8.3,13-18.2,13-28.9c0-9.6-3.9-18.5-10.6-26.2c5.6,7.8,8.8,16.6,8.8,26
		C176.3,86.4,172.2,96.4,165.1,104.9z M142.3,28.2c5.7,2.3,11,5.1,15.7,8.4c5.9,4,10.9,8.7,14.8,13.8c-4.3-6.1-10.1-11.7-17-16.4v0
		c-1-0.7-1.9-1.3-2.9-1.9C149.5,30.7,145.9,29.4,142.3,28.2z M66.8,25.9c3.9-1.3,8-2.4,12.2-3.2c-15.7,2.1-29.7,7.5-40.6,15
		c-1.9,1.3-3.6,2.6-5.3,4c1.8-1.4,3.7-2.7,5.7-3.9C46.8,32.9,56.3,28.8,66.8,25.9z M40.3,40c1.4-1.2,3-2.3,4.6-3.4
		c2.1-1.4,4.3-2.8,6.7-4.1c-4.3,1.9-8.4,4-12.1,6.4c-6.3,3.9-11.6,8.4-15.7,13.4c-0.8,2.4-1.5,4.8-2,7.2c3.7-7.2,9.8-13.6,17.6-18.8
		C39.6,40.4,39.9,40.2,40.3,40z M24.3,60.2c2-4.6,4.8-9,8.3-13c-5.4,4.9-9.4,10.6-11.8,16.7c-0.2,1.7-0.3,3.3-0.3,5
		C21.5,65.9,22.7,63,24.3,60.2z M21.1,77.3c0-0.4,0-0.8,0-1.3c0-0.3,0-0.7,0-1c0,0.4-0.1,0.8-0.1,1.2C21,76.6,21,76.9,21.1,77.3z
		 M52.9,120.3c-2.8-1.5-5.5-3.1-8-4.8c-2-1.3-3.8-2.7-5.5-4.2c1.7,1.6,3.5,3.2,5.4,4.7l0.4,0.3C47.6,117.8,50.2,119.1,52.9,120.3z
		 M128.3,128.4c-0.8,0.2-1.5,0.4-2.3,0.5c-9.8,2.9-20.5,4.5-31.8,4.5c-1.9,0-3.8,0-5.7-0.1c3.4,0.3,7,0.6,10.5,0.7
		C109.5,133.6,119.4,131.6,128.3,128.4z M163.1,111.6c-1.6,1.3-3.3,2.6-5.2,3.9c-6,4.1-12.9,7.5-20.4,10.1
		c-7.1,3.6-15.1,6.3-23.7,7.8c3.9-0.3,7.7-0.8,11.4-1.4c11.6-3.1,22-7.8,30.6-13.7c0.9-0.6,1.8-1.3,2.7-1.9
		C160.1,114.9,161.6,113.3,163.1,111.6z M175.9,96.9c-2.2,3.8-5,7.3-8.2,10.6c-0.9,1.3-1.9,2.5-2.9,3.7v0l-0.1,0.1
		C169.3,106.9,173.1,102.1,175.9,96.9z M158.9,30.1c3,2.5,5.7,5.2,8,8c2.5,1.6,4.8,3.2,7,5c-4.6-5.2-10.1-10-16.4-14.2
		C158,29.3,158.4,29.7,158.9,30.1z"/>
	<path class="st1" d="M212.4,100.2c-1.2,0-2.2-0.4-3-1.2c-0.8-0.8-1.2-1.8-1.2-3.1c0-1.2,0.4-2.3,1.2-3.1c0.8-0.8,1.8-1.2,3-1.2
		c1.2,0,2.2,0.4,3,1.2c0.8,0.8,1.2,1.8,1.2,3.1c0,1.2-0.4,2.3-1.2,3.1C214.7,99.8,213.6,100.2,212.4,100.2 M212.4,99.3
		c0.9,0,1.7-0.3,2.3-0.9c0.6-0.6,0.9-1.4,0.9-2.4c0-1-0.3-1.8-0.9-2.4c-0.6-0.6-1.4-0.9-2.3-0.9c-0.9,0-1.7,0.3-2.3,0.9
		c-0.6,0.6-0.9,1.4-0.9,2.4c0,1,0.3,1.8,0.9,2.4C210.8,99,211.5,99.3,212.4,99.3z M195.6,100v-8.1h1v7.2h5.3v0.9H195.6z M180.6,100
		v-8.1h4.7c0.8,0,1.4,0.2,1.9,0.6c0.4,0.4,0.7,1,0.7,1.7c0,0.6-0.2,1.1-0.5,1.5c-0.4,0.4-0.8,0.7-1.4,0.8l2,3.6h-1.1l-2-3.6h-3.1
		v3.6H180.6z M181.6,95.5h3.6c0.5,0,0.9-0.1,1.2-0.3c0.3-0.2,0.4-0.6,0.4-1c0-0.4-0.1-0.8-0.4-1c-0.3-0.2-0.6-0.4-1.1-0.4h-3.6V95.5
		z M164.6,100l4-8.1h0.8l4,8.1h-1.1l-1.1-2.2h-4.5l-1.1,2.2H164.6z M167.2,96.9h3.6l-1.8-3.6L167.2,96.9z M157.2,97.4L158,98
		c-0.4,0.7-0.9,1.3-1.5,1.6c-0.6,0.4-1.4,0.6-2.2,0.6c-1.2,0-2.2-0.4-3-1.2c-0.8-0.8-1.2-1.8-1.2-3.1c0-1.2,0.4-2.3,1.2-3.1
		c0.8-0.8,1.8-1.2,3-1.2c0.8,0,1.4,0.2,2.1,0.5c0.6,0.3,1.1,0.8,1.5,1.4l-0.9,0.6c-0.3-0.5-0.6-0.9-1.1-1.1c-0.5-0.3-1-0.4-1.6-0.4
		c-0.9,0-1.7,0.3-2.3,0.9c-0.6,0.6-0.9,1.4-0.9,2.4c0,1,0.3,1.8,0.9,2.4c0.6,0.6,1.4,0.9,2.3,0.9c0.6,0,1.2-0.2,1.7-0.5
		C156.5,98.5,156.9,98,157.2,97.4z M135.5,100v-8.1h0.5l5.3,6.1v-6.1h1v8.1h-0.5l-5.3-6.1v6.1H135.5z M119.4,100l4-8.1h0.8l4,8.1
		h-1.1l-1.1-2.2h-4.5l-1.1,2.2H119.4z M122,96.9h3.6l-1.8-3.6L122,96.9z M111.2,100v-8.2h1v8.2H111.2z M102.1,97.8v-1.2h-2.2v-0.9
		h3.2v2.4c-0.4,0.7-0.9,1.2-1.5,1.6c-0.6,0.4-1.3,0.5-2.1,0.5c-1.2,0-2.2-0.4-3-1.2c-0.8-0.8-1.2-1.8-1.2-3.1c0-1.2,0.4-2.3,1.2-3.1
		c0.8-0.8,1.8-1.2,3-1.2c0.7,0,1.4,0.2,2.1,0.5c0.6,0.3,1.1,0.8,1.5,1.4l-0.8,0.6c-0.3-0.5-0.6-0.9-1.1-1.1c-0.5-0.3-1-0.4-1.6-0.4
		c-0.9,0-1.7,0.3-2.3,0.9c-0.6,0.6-0.9,1.4-0.9,2.4c0,1,0.3,1.8,0.9,2.4c0.6,0.6,1.4,0.9,2.3,0.9c0.6,0,1.1-0.1,1.5-0.4
		C101.4,98.7,101.8,98.3,102.1,97.8z"/>
	<path class="st2" d="M255.2,94.9h2.9c0.2,0,0.6,0,0.8-0.2c0.2-0.1,0.2-0.3,0.2-0.6c0-0.2,0-0.4-0.2-0.6c-0.2-0.2-0.5-0.2-0.7-0.2
		h-2.9V94.9z M242.7,98.5c0.7,0,1.3-0.2,1.8-0.7c0.5-0.5,0.7-1.2,0.7-1.9s-0.2-1.4-0.7-1.9c-0.5-0.5-1.1-0.7-1.8-0.7
		c-0.7,0-1.3,0.2-1.8,0.7c-0.5,0.5-0.7,1.2-0.7,1.9s0.2,1.4,0.7,1.9C241.4,98.2,242,98.5,242.7,98.5z M305.8,100.1v-8.6h1.9v8.6
		H305.8z M295.1,98.3h5v1.8h-6.9v-8.6h1.9V98.3z M282.5,98.3h5v1.8h-6.9v-8.6h1.9V98.3z M269.2,93.4v1.3h3v1.8h-3v1.8h5.3v1.8h-7.3
		v-8.6h6.9v1.8H269.2z M259.4,96.6l2,3.5h-2.2l-1.9-3.3h-2.2v3.3h-1.9v-8.6h4.8c0.7,0,1.5,0.2,2.1,0.7c0.6,0.5,0.8,1.2,0.8,1.9
		c0,0.6-0.2,1.2-0.6,1.7C260.1,96.2,259.8,96.4,259.4,96.6z M242.7,100.3c-1.2,0-2.3-0.4-3.2-1.3c-0.9-0.9-1.3-2-1.3-3.2
		c0-1.2,0.4-2.3,1.3-3.2c0.9-0.9,1.9-1.3,3.2-1.3c1.2,0,2.3,0.4,3.2,1.3c0.9,0.9,1.3,2,1.3,3.2c0,1.2-0.4,2.3-1.3,3.2
		C245,99.9,243.9,100.3,242.7,100.3z M227.6,95.8l2.8-4.3h1.6v8.6h-1.9v-4.8l-2.5,3.8l-2.5-3.8v4.8h-1.9v-8.6h1.6L227.6,95.8z"/>
	<path class="st1" d="M213.2,53.9c-0.2-1.6,1.1-2.9,2.6-2.9c1.1,0,2,0.8,2.1,1.7c0.2,1.7-1.2,3.1-2.6,3.1
		C214.3,55.7,213.3,55,213.2,53.9 M248.6,67.8c-5.2,6-7.6,10.4-7.3,12.9c0.2,1.8,1.3,2.7,3.2,2.7c2.4,0,6.5-2.6,10.8-7.9
		c4.3-5.5,6.1-10.1,5.8-12.3c-0.2-1.7-1.1-2.7-2.7-2.7C255.9,60.6,252.7,63,248.6,67.8z M285.9,62c-0.1-0.9-0.9-1.5-1.9-1.5
		c-2,0-6.9,4.3-12,13.1C281.6,70.5,286.3,65.4,285.9,62z M104.2,67.7c-5.2,6-7.6,10.4-7.3,12.9c0.2,1.8,1.3,2.7,3.2,2.7
		c2.4,0,6.5-2.6,10.8-7.9c4.3-5.5,6.1-10.1,5.8-12.3c-0.2-1.7-1.1-2.6-2.6-2.6C111.6,60.4,108.4,62.8,104.2,67.7z M104.2,61.7
		c2.8-1.9,6-3.2,9-3.2c2.8,0,4.8,1.8,5.1,4.5c0.3,2.8-1,5.4-1.8,6.9c-1,1.9-2,3.7-3.2,5.4c2.4,1.7,6.1-1.2,9.5-5.5
		c3.3-5.2,10.4-11.2,17-11.2c2.8,0,4.8,1.8,5.1,4.5c0.4,4-2.4,7.6-2.3,8.1c0.1,0.7,1.1,1.3,2.4,1.3c3.5,0,5.8-3.3,7.3-4.9
		c0.5-0.8,1.3-1.9,2.5-3.4c3.1-3.8,5.7-5.8,7.9-5.8c1.9,0,3.7,1.5,3.9,3.9c0.1,1.1-0.1,2.4-0.7,3.7c4.6-4.7,7.8-7.3,10.3-7.3
		c2,0,3.4,1.5,3.6,3.5c0.2,1.3-0.2,2.7-0.9,4.3c4.9-5,8.3-7.8,10.9-7.8c2,0,3.4,1.4,3.6,3.5c0.3,3-1.6,5.9-4.1,9.7
		c-3.1,4.9-5.1,7.6-5,9.1c0.1,1.2,0.9,1.8,2,1.8c2,0,6.2-3,12-9.4c2-2.2,3.3-3.9,4.2-5.1c1-1.5,2.1-3.2,3.2-5
		c2.2-3.3,2.4-4.5,5.5-4.5c1.3,0,2,0.3,2.1,0.8c0,0.3-0.2,1.1-0.8,2.1l-9.8,15.3c-1.4,2.1-1.9,3.7-1.8,4.5c0.1,0.9,0.6,1.3,1.7,1.3
		c2.2,0,6-2.6,11.3-8.2c3-3.1,4.7-5.5,5.8-6.9c0.8-1.5,3.7-3.9,5.1-7c1.1-2.4,1.2-6.7,3.5-6.7c0.9,0,1.7,0.9,1.8,2.2
		c0.3,2.4-1.6,3.1-1.6,3.7c0,0.5,0.5,0.7,1.6,0.7c2.2,0,4.2-1,5.9-1c0.8,0,1.1,0.1,1.2,0.7c0.1,0.9-2,2.9-5.9,7.7
		c-5.6,7.1-8.2,11.8-7.9,13.7c0.1,0.7,0.7,1.2,1.7,1.2c1.8,0,5.7-2.6,10.9-8.1c2.1-2.3,3.7-4.2,4.8-5.6c3.3-5,10.1-10.6,16.5-10.6
		c2.8,0,4.8,1.8,5.1,4.5c0.4,4-2.4,7.6-2.3,8.1c0.1,0.7,1.1,1.3,2.4,1.3c3.1,0,5.2-2.5,6.7-4.3c2.8-4.3,9.3-9.6,14.8-9.6
		c2.2,0,3.4,1.1,3.6,2.9c0.5,4.2-4.9,10-16.2,13.8c-0.5,1.3-0.9,2.8-0.7,4.7c0.2,2,1.6,3.2,3.6,3.2c3.6,0,9.1-3.4,15.9-10.6
		c2.5-2.6,3.8-4.6,4.7-5.7l3.6-5.4c1-1.6,1.4-2.6,4.2-2.6c1.3,0,2.1,0.4,2.2,0.9c0.1,0.6-0.3,1.2-1,2.2L293.6,78
		c-0.9,1.3-1.4,2.9-1.3,4.1c0.1,0.7,0.7,1.3,1.5,1.3c2.4,0,8.8-5.6,17.1-17.3c4-5.7,3.8-6.6,7.7-6.6c0.9,0,1.7,0.5,1.7,0.9
		c0,0.4-0.6,1.4-1.8,3.2L310,76.2c-1.9,2.9-2.7,5.1-2.7,5.8c0.1,0.7,0.8,1.2,1.4,1.2c2.2,0,3.9-0.8,9.6-7c4.6-5-2.2,8.8-10.6,8.8
		c-2.2,0-3.6-1.3-3.9-3.7c-0.2-1.7,0.4-3.2,1.3-5c-4.9,5.8-8.9,8.8-12.2,8.8c-2.5,0-4.1-1.6-4.4-3.8c-0.2-1.8,0.3-3.5,1.1-5.4
		c-6.2,6.2-11.7,9.2-15.5,9.2c-4,0-6.8-2.8-7.3-7.5c-0.2-1.6,0-3.4,0.6-5.1c-2.3,1.6-5.5,2.7-8.2,0.5c-5.5,8-10.7,12.1-15.3,12.1
		c-3.2,0-5.4-2.3-5.8-6c-0.1-1.3,0-2.7,0.4-4.2c-3,3.2-9.5,10.2-14.1,10.2c-2.7,0-4.3-1.4-4.6-4.3c-0.3-3.1,1.3-7.6,5.3-11.8
		c3.5-3.7,6.1-5.1,6-5.8c-0.1-0.5-0.7-0.7-2.2-0.7c-4.3,0-6,4.8-7.7,6.4c-1,1.5-2.9,3.8-5.7,6.9c-5.7,6.1-10.1,9.1-13,9.1
		c-2.7,0-4.3-1.5-4.6-4.2c-0.2-1.6,0.2-3.2,0.9-5c-3,3.2-8.9,9.4-13.6,9.4c-2.6,0-4.3-1.6-4.6-4.1c-0.3-2.8,1.8-6.4,5.2-11.5
		c2.7-4,3.8-6.4,3.7-7.2c-0.1-0.6-0.5-0.9-0.9-0.9c-1.8,0-7.7,4.6-14.8,14.5c-4.9,6.8-4.6,9.3-9.5,9.3c-0.8,0-1.4-0.3-1.4-0.8
		c-0.1-0.8,1.2-2.8,3.6-6.2l8-11.7c1.1-1.7,1.7-3,1.6-3.9c-0.1-0.7-0.6-1.1-1.1-1.1c-1.8,0-7.6,4.6-14.7,14.5
		c-4.9,6.8-4.7,9.3-9.6,9.3c-0.8,0-1.3-0.3-1.4-0.8c-0.1-0.8,1.2-2.8,3.6-6.2l8-11.7c1.4-2,2-3.6,1.9-4.5c-0.1-0.6-0.6-0.9-1-0.9
		c-2.9,0-6.1,5.6-8.1,7.7c-1.9,3.3-7.8,7.9-12,4.4c-5.5,8-10.7,12.1-15.3,12.1c-3.2,0-5.4-2.3-5.9-6c-0.1-1.3,0-2.7,0.4-4.2
		c-4.1,3.9-6,2.7-8.4,2c-3.3,4.5-7.5,7.9-12.8,8c-3.8,0-5.7-3.1-5.9-6.5c0-0.2,0-0.4,0-0.6c0-0.1,0-0.2,0-0.3
		c-1.2,1.5-2.4,3.2-3.5,5l-12.3,18.6c-1.9,2.8-2.2,4.1-6,4.1c-0.8,0-1.4-0.4-1.4-0.7c-0.1-1.1,1.4-3,3.6-6.3l23.3-35.3
		c1.9-2.8,2.2-4.1,6-4.1c0.8,0,1.4,0.4,1.4,0.8C104.7,60.1,104.5,60.9,104.2,61.7z M130.9,67.8c-5.2,6-7.6,10.4-7.3,12.9
		c0.2,1.8,1.3,2.7,3.2,2.7c2.4,0,6.5-2.6,10.7-7.9c4.3-5.5,6.1-10.1,5.8-12.3c-0.2-1.7-1.1-2.7-2.6-2.7
		C138.2,60.6,135,63,130.9,67.8z"/>
</g>
</svg>
